<?xml version="1.0" encoding="UTF-8" standalone="no"?><!DOCTYPE svg PUBLIC "-//W3C//DTD SVG 1.1//EN" "http://www.w3.org/Graphics/SVG/1.1/DTD/svg11.dtd"><svg width="16px" height="16px" version="1.1" xmlns="http://www.w3.org/2000/svg" xmlns:xlink="http://www.w3.org/1999/xlink" xml:space="preserve" xmlns:serif="http://www.serif.com/" style="fill-rule:evenodd;clip-rule:evenodd;stroke-linejoin:round;stroke-miterlimit:2;"><g transform="matrix(0.0533333,0,0,0.0533333,0,0)"><path d="M45.432,35.049L45.407,35.049C42.598,35.049 39.956,36.144 37.961,38.134C35.944,40.146 34.833,42.825 34.833,45.677L34.833,205.042C34.833,210.886 39.606,215.652 45.474,215.667C70.212,215.726 111.658,220.882 140.25,250.803L140.25,84.023C140.25,82.042 139.744,80.181 138.789,78.641C115.322,40.849 70.226,35.107 45.432,35.049Z" style="fill:rgb(122,153,172);fill-rule:nonzero;"/></g><g transform="matrix(0.0533333,0,0,0.0533333,0,0)"><path d="M262.167,205.042L262.167,45.676C262.167,42.824 261.056,40.145 259.039,38.133C257.044,36.143 254.4,35.048 251.594,35.048L251.568,35.048C226.775,35.107 181.679,40.849 158.211,78.641C157.256,80.181 156.751,82.042 156.751,84.023L156.751,250.802C185.343,220.881 226.789,215.725 251.527,215.666C257.394,215.651 262.167,210.885 262.167,205.042Z" style="fill:rgb(122,153,172);fill-rule:nonzero;"/></g><g transform="matrix(0.0533333,0,0,0.0533333,0,0)"><path d="M286.373,71.801L278.667,71.801L278.667,205.042C278.667,219.963 266.51,232.13 251.566,232.167C230.583,232.217 195.985,236.32 171.482,259.511C213.86,249.135 258.534,255.88 283.994,261.682C287.173,262.406 290.458,261.658 293.005,259.628C295.543,257.603 296.999,254.576 296.999,251.327L296.999,82.427C297,76.568 292.232,71.801 286.373,71.801Z" style="fill:rgb(122,153,172);fill-rule:nonzero;"/></g><g transform="matrix(0.0533333,0,0,0.0533333,0,0)"><path d="M18.332,205.042L18.332,71.801L10.626,71.801C4.768,71.801 0,76.568 0,82.427L0,251.324C0,254.574 1.456,257.6 3.994,259.625C6.539,261.654 9.821,262.405 13.005,261.679C38.465,255.876 83.14,249.132 125.516,259.508C101.014,236.318 66.416,232.216 45.433,232.166C30.49,232.13 18.332,219.963 18.332,205.042Z" style="fill:rgb(122,153,172);fill-rule:nonzero;"/></g></svg>