<svg id="Ebene_1" xmlns="http://www.w3.org/2000/svg" viewBox="0 0 64 64">
    <defs>
        <style>.cls-1{fill:#7a99ac;}.cls-2{fill:#fff;}</style>
    </defs>
    <title>module-bib</title>
    <rect class="cls-1" width="64" height="64"/>
    <path class="cls-2"
          d="M18.85,16.89h0a1.37,1.37,0,0,0-1.35,1.36V38.64A1.36,1.36,0,0,0,18.85,40c3.17,0,8.47.67,12.13,4.5V23.16a1.32,1.32,0,0,0-.19-.69C27.79,17.63,22,16.9,18.85,16.89Z"/>
    <path class="cls-2"
          d="M46.58,38.64V18.25a1.37,1.37,0,0,0-1.35-1.36h0c-3.17,0-8.94.74-11.94,5.58a1.32,1.32,0,0,0-.19.69V44.5c3.66-3.83,9-4.49,12.13-4.5A1.36,1.36,0,0,0,46.58,38.64Z"/>
    <path class="cls-2"
          d="M49.68,21.59h-1V38.64a3.48,3.48,0,0,1-3.47,3.47c-2.68,0-7.11.53-10.24,3.5,5.42-1.33,11.13-.46,14.39.28A1.35,1.35,0,0,0,51,44.56V23A1.36,1.36,0,0,0,49.68,21.59Z"/>
    <path class="cls-2"
          d="M15.38,38.64v-17h-1A1.36,1.36,0,0,0,13,23V44.56a1.36,1.36,0,0,0,.52,1.07,1.38,1.38,0,0,0,1.15.26c3.26-.74,9-1.61,14.39-.28-3.13-3-7.56-3.49-10.24-3.5A3.48,3.48,0,0,1,15.38,38.64Z"/>
</svg>
